<svg width="15" height="12" viewBox="0 0 15 12" fill="currentColor" xmlns="http://www.w3.org/2000/svg">
<path d="M14.7797 8.55234L12.6633 6.43828C12.382 6.15703 12 6 11.6016 6H9.74297C9.32812 6 8.99297 6.33516 8.99297 6.75V8.60625C8.99297 9.00469 9.15 9.38437 9.43125 9.66562L11.5477 11.7797C11.8406 12.0727 12.3164 12.0727 12.6094 11.7797L14.7773 9.61172C15.0727 9.31875 15.0727 8.84531 14.7797 8.55234ZM10.4953 8.06016C10.1836 8.06016 9.93281 7.80937 9.93281 7.49766C9.93281 7.18594 10.1836 6.93516 10.4953 6.93516C10.807 6.93516 11.0578 7.18594 11.0578 7.49766C11.0578 7.80703 10.807 8.06016 10.4953 8.06016ZM5.25 5.99766C6.90703 5.99766 8.25 4.65469 8.25 2.99766C8.25 1.34297 6.90703 0 5.25 0C3.59297 0 2.25 1.34297 2.25 3C2.25 4.65469 3.59297 5.99766 5.25 5.99766ZM8.24531 8.60391V6.89062C7.95937 6.80625 7.66172 6.74531 7.35 6.74531H6.95859C6.43828 6.98437 5.85937 7.12031 5.25 7.12031C4.64062 7.12031 4.06406 6.98437 3.54141 6.74531H3.15C1.41094 6.74766 0 8.15859 0 9.89766V10.8727C0 11.4937 0.503906 11.9977 1.125 11.9977H9.375C9.73828 11.9977 10.057 11.8219 10.2633 11.5547L8.90391 10.1953C8.47969 9.77109 8.24531 9.20625 8.24531 8.60391Z" fill="currentColor"/>
</svg>
